<?xml version="1.0" encoding="UTF-8"?>
<svg xmlns="http://www.w3.org/2000/svg" width="150" height="39" viewBox="0 0 150 39" fill="none">
  <path d="M24.3252 9.09634H26.7007V25.2674H33.8271V27.5908H24.3252V9.09634ZM41.2268 9.09634C42.6363 9.09634 44.0142 9.50514 45.1861 10.2711C46.358 11.037 47.2714 12.1256 47.8108 13.3992C48.3501 14.6729 48.4913 16.0744 48.2163 17.4265C47.9413 18.7785 47.2627 20.0205 46.2659 20.9954C45.2694 21.9702 43.9995 22.634 42.6171 22.903C41.2347 23.1719 39.8018 23.0339 38.4996 22.5064C37.1975 21.9788 36.0844 21.0853 35.3013 19.9391C34.5183 18.7928 34.1003 17.4452 34.1003 16.0666C34.1003 15.1513 34.2847 14.2449 34.6428 13.3992C35.001 12.5536 35.5259 11.7851 36.1876 11.1379C36.8494 10.4906 37.635 9.97726 38.4996 9.62689C39.3642 9.27663 40.2909 9.09634 41.2268 9.09634ZM41.2268 20.7135C42.1664 20.7135 43.085 20.4409 43.8664 19.9304C44.6476 19.4198 45.2565 18.6941 45.6161 17.8449C45.9757 16.9958 46.0697 16.0615 45.8865 15.16C45.7032 14.2586 45.2506 13.4307 44.5862 12.7808C43.9218 12.131 43.0752 11.6884 42.1536 11.5091C41.2321 11.3297 40.2768 11.4217 39.4087 11.7735C38.5406 12.1252 37.7986 12.7208 37.2765 13.4849C36.7545 14.2491 36.4759 15.1476 36.4759 16.0666C36.4821 17.295 36.9855 18.471 37.8758 19.3374C38.7661 20.2038 39.9709 20.6902 41.2268 20.6902V20.7135ZM36.4759 25.2906H45.9778V27.6141H36.4759V25.2906ZM66.882 27.6141H64.5066V25.9528C62.9746 27.0016 61.1505 27.5653 59.2805 27.5676C57.686 27.5781 56.1144 27.1959 54.7106 26.4562C53.3066 25.7165 52.1157 24.6431 51.2474 23.335C50.379 22.0269 49.8612 20.5261 49.7417 18.9709C49.6222 17.4156 49.9047 15.856 50.5634 14.4356C51.2219 13.0151 52.2354 11.7798 53.5104 10.8431C54.7853 9.9064 56.2808 9.29859 57.8591 9.07577C59.4373 8.85284 61.0474 9.0221 62.5413 9.56776C64.0351 10.1134 65.3645 11.0179 66.407 12.1981L64.6609 13.72C63.868 12.8529 62.8659 12.1937 61.7458 11.8026C60.6257 11.4113 59.4234 11.3006 58.2483 11.4803C57.0733 11.6599 55.9628 12.1245 55.0183 12.8314C54.0738 13.5384 53.3252 14.4653 52.8408 15.5277C52.3563 16.5901 52.1514 17.7541 52.2448 18.9139C52.3381 20.0736 52.7266 21.192 53.3752 22.1671C54.0236 23.1424 54.9113 23.9433 55.9572 24.497C57.0033 25.0506 58.1743 25.3394 59.3636 25.3371C60.3507 25.3391 61.3266 25.1325 62.2244 24.7315C63.1223 24.3305 63.9211 23.7445 64.5659 23.0137H58.1522V20.6902H66.9058L66.882 27.6141ZM75.6238 9.14281C77.0333 9.14281 78.4112 9.55161 79.5831 10.3175C80.755 11.0835 81.6684 12.1721 82.2078 13.4457C82.7472 14.7194 82.8883 16.1209 82.6133 17.473C82.3383 18.825 81.6597 20.067 80.663 21.0419C79.6664 22.0167 78.3966 22.6805 77.0141 22.9494C75.6317 23.2184 74.1988 23.0804 72.8967 22.5528C71.5945 22.0253 70.4815 21.1318 69.6985 19.9856C68.9154 18.8393 68.4973 17.4917 68.4973 16.1131C68.4911 15.1919 68.6716 14.2786 69.0284 13.426C69.3852 12.5735 69.9113 11.7985 70.5762 11.1461C71.2411 10.4935 72.0316 9.97645 72.9021 9.62468C73.7726 9.2728 74.7057 9.0932 75.6476 9.09634L75.6238 9.14281ZM75.6238 20.76C76.5635 20.76 77.4821 20.4874 78.2634 19.9768C79.0446 19.4663 79.6536 18.7405 80.0131 17.8913C80.3728 17.0422 80.4669 16.108 80.2835 15.2066C80.1002 14.3051 79.6477 13.4772 78.9833 12.8273C78.3189 12.1774 77.4724 11.7348 76.5507 11.5556C75.6291 11.3762 74.6738 11.4682 73.8057 11.82C72.9376 12.1716 72.1956 12.7672 71.6736 13.5314C71.1515 14.2956 70.8729 15.1941 70.8729 16.1131C70.8916 17.3374 71.4037 18.5051 72.2978 19.3622C73.1919 20.2193 74.3957 20.6965 75.6476 20.6902L75.6238 20.76ZM70.8729 25.3371H80.3748V27.6605H70.8729V25.3371ZM85.2802 9.09634H87.6557V27.5676H85.2802V9.09634ZM90.9462 9.09634H93.3211C93.4433 9.08367 93.5667 9.08367 93.6889 9.09634C94.6841 8.99074 95.6913 9.09134 96.6427 9.39141C97.5953 9.6916 98.4731 10.1845 99.2181 10.8382C99.9631 11.4919 100.559 12.2917 100.965 13.1856C101.374 14.0794 101.585 15.0472 101.585 16.026C101.585 17.0047 101.374 17.9725 100.965 18.8664C100.559 19.7602 99.9631 20.56 99.2181 21.2137C98.4731 21.8674 97.5953 22.3603 96.6427 22.6605C95.6913 22.9606 94.6841 23.0612 93.6889 22.9556H93.3211V27.6024H90.9462V9.09634ZM93.3211 11.4198V20.6089H93.6889C94.3603 20.6963 95.0424 20.6425 95.6901 20.4511C96.339 20.2595 96.9369 19.9349 97.447 19.4987C97.9559 19.0626 98.364 18.525 98.6427 17.9221C98.9227 17.3192 99.0674 16.6648 99.0674 16.0027C99.0674 15.3407 98.9227 14.6863 98.6427 14.0833C98.364 13.4804 97.9559 12.9429 97.447 12.5068C96.9369 12.0707 96.339 11.746 95.6901 11.5545C95.0424 11.363 94.3603 11.3092 93.6889 11.3965C93.5596 11.4097 93.4326 11.437 93.3092 11.4779L93.3211 11.4198ZM110.437 10.4323L108.679 11.7915C108.375 11.4816 107.988 11.2627 107.562 11.1607C107.136 11.0587 106.689 11.0778 106.274 11.2157C105.858 11.3534 105.492 11.6045 105.217 11.9389C104.943 12.2735 104.771 12.6778 104.724 13.1043V13.2901C104.724 14.3124 105.448 14.9978 106.861 15.0908C112.302 15.4161 114.795 17.9138 114.795 21.213V21.4221C114.655 22.7279 114.134 23.9669 113.294 24.9914C112.456 26.016 111.332 26.7832 110.059 27.2017C108.788 27.6202 107.419 27.6724 106.117 27.3522C104.815 27.0319 103.635 26.3527 102.716 25.3952L104.534 24.0244C104.956 24.4678 105.473 24.8158 106.047 25.0446C106.622 25.2732 107.24 25.3771 107.859 25.3487C109.004 25.4077 110.126 25.0322 110.994 24.3005C111.861 23.5687 112.406 22.5376 112.515 21.4221V21.2595C112.515 18.1577 109.403 17.5885 106.707 17.3329C104.212 17.1006 102.42 15.5787 102.42 13.3831V13.2901C102.508 12.147 103.04 11.0805 103.91 10.311C104.778 9.54139 105.916 9.12735 107.087 9.15442C107.708 9.13653 108.326 9.24608 108.9 9.47622C109.476 9.70635 109.995 10.0518 110.425 10.4904L110.437 10.4323ZM124.095 25.2093C127.053 25.2093 129.393 22.0843 129.393 18.239V8.94531H131.768V18.239C131.768 23.3506 128.348 27.4747 124.143 27.4747C119.939 27.4747 116.518 23.3506 116.518 18.239V8.94531H118.894V18.239C118.799 22.1424 121.138 25.2674 124.084 25.2674L124.095 25.2093ZM150 27.5327H147.625V16.0318L142.149 23.0021L136.674 16.0318V27.5676H134.299V9.09634L142.138 19.1916L149.976 9.09634L150 27.5327Z" fill="#0B090A"></path>
  <path d="M12.9226 6.31972C12.9226 4.6436 12.2419 3.03614 11.0301 1.85096C9.81845 0.665778 8.17498 0 6.46129 0C4.74759 0 3.10413 0.665778 1.89247 1.85096C0.680686 3.03614 0 4.6436 0 6.31972V25.4299L5.32104 29.159V38.2436H7.60154V29.159L12.9226 25.4299V6.31972ZM10.6422 17.0075L7.60154 19.9815V17.1934L10.6422 14.2194V17.0075ZM2.32795 14.2194L5.36861 17.1934V19.9815L2.32795 17.0075V14.2194ZM10.6422 11.0595L6.46129 15.1488L2.28038 10.9666V8.17847L6.46129 12.2677L10.6422 8.17847V11.0595ZM6.46129 2.23049C7.38077 2.23444 8.27356 2.53312 9.003 3.08075C9.73233 3.62838 10.2581 4.39476 10.4996 5.26256L6.46129 9.20078L2.42297 5.26256C2.65572 4.38617 3.17768 3.60933 3.90783 3.05275C4.63798 2.49606 5.53552 2.19076 6.46129 2.18402V2.23049ZM2.28038 24.3031V20.1209L5.32104 23.0949V26.4174L2.28038 24.3031ZM7.60154 26.429V23.0949L10.6422 20.1209V24.2914L7.60154 26.429Z" fill="#0B090A"></path>
</svg>
