<?xml version="1.0" encoding="UTF-8"?>
<svg xmlns="http://www.w3.org/2000/svg" width="150" height="34" viewBox="0 0 150 34" fill="none">
  <path d="M36.1729 7.75024H39.6432V24.0995H36.1729V7.75024Z" fill="#0B090A"></path>
  <path d="M41.5865 18.4991C41.5865 17.3228 41.9435 16.1731 42.6124 15.1955C43.2813 14.218 44.2318 13.4566 45.3436 13.0081C46.4553 12.5595 47.6782 12.4439 48.8571 12.6758C50.0362 12.9078 51.1183 13.4769 51.9662 14.3111C52.8141 15.1452 53.3898 16.2068 53.6202 17.3612C53.8506 18.5157 53.7253 19.7111 53.2603 20.7959C52.7954 21.8807 52.0116 22.806 51.0083 23.4546C50.005 24.1032 48.8274 24.4459 47.6248 24.4391C46.8272 24.4452 46.0363 24.2955 45.2986 23.9987C44.5609 23.702 43.8912 23.2641 43.3289 22.7108C42.7665 22.1576 42.3226 21.5001 42.0234 20.7769C41.7242 20.0537 41.5756 19.2792 41.5865 18.4991ZM50.2855 18.4991C50.2718 17.992 50.1056 17.5001 49.8076 17.0849C49.5097 16.6697 49.0931 16.3497 48.6101 16.1648C48.1272 15.9799 47.5992 15.9384 47.0922 16.0454C46.5852 16.1525 46.1218 16.4034 45.7599 16.7667C45.3979 17.13 45.1535 17.5897 45.0573 18.0881C44.961 18.5866 45.0171 19.1018 45.2186 19.5693C45.4201 20.0367 45.758 20.4356 46.1901 20.7162C46.6222 20.9967 47.1293 21.1465 47.6479 21.1466C48.0011 21.1534 48.3519 21.0888 48.6783 20.957C49.0048 20.8251 49.2999 20.6288 49.5453 20.3803C49.7905 20.1318 49.9809 19.8365 50.1043 19.5128C50.2277 19.1891 50.2815 18.844 50.2623 18.4991H50.2855Z" fill="#0B090A"></path>
  <path d="M67.394 12.8986V23.5454C67.394 27.3018 64.3864 28.8971 61.344 28.8971C60.2709 28.9832 59.1945 28.7747 58.236 28.2949C57.2775 27.8152 56.475 27.0833 55.9187 26.1816L58.8453 24.5298C59.0825 24.9974 59.4597 25.3833 59.9269 25.636C60.3939 25.8886 60.9286 25.9961 61.4597 25.944C61.7981 25.9848 62.1413 25.952 62.4652 25.8478C62.789 25.7437 63.0854 25.5708 63.333 25.3417C63.5804 25.1124 63.7733 24.8326 63.8973 24.5221C64.0214 24.2116 64.0739 23.878 64.0509 23.5454V22.5158C63.6471 22.9947 63.1346 23.3749 62.5544 23.6263C61.974 23.8777 61.3417 23.9933 60.7078 23.964C59.1738 23.964 57.7027 23.368 56.6179 22.307C55.5333 21.2461 54.9238 19.8073 54.9238 18.3069C54.9238 16.8065 55.5333 15.3675 56.6179 14.3067C57.7027 13.2457 59.1738 12.6497 60.7078 12.6497C61.3417 12.6204 61.974 12.736 62.5544 12.9874C63.1346 13.2387 63.6471 13.619 64.0509 14.0979V12.9665L67.394 12.8986ZM64.0509 18.2729C64.074 17.7316 63.931 17.1959 63.6403 16.7347C63.3496 16.2736 62.9244 15.908 62.4197 15.685C61.9148 15.462 61.3534 15.3918 60.8074 15.4835C60.2614 15.5751 59.756 15.8244 59.3561 16.1992C58.9561 16.5741 58.68 17.0574 58.5632 17.587C58.4464 18.1166 58.4941 18.6682 58.7004 19.1711C58.9068 19.6739 59.2621 20.1048 59.7209 20.4085C60.1795 20.7122 60.7207 20.8748 61.2746 20.8752C61.6361 20.9007 61.999 20.8517 62.3398 20.7315C62.6808 20.6113 62.992 20.4224 63.2537 20.1771C63.5153 19.9319 63.7214 19.6357 63.8588 19.3077C63.9961 18.9797 64.0615 18.6272 64.0509 18.2729Z" fill="#0B090A"></path>
  <path d="M69.349 18.4991C69.349 17.3238 69.7055 16.1749 70.3733 15.1978C71.0412 14.2207 71.9903 13.4594 73.1007 13.0102C74.2111 12.5609 75.4328 12.4439 76.6111 12.6741C77.7896 12.9042 78.8717 13.471 79.7205 14.3029C80.5694 15.1348 81.1469 16.1943 81.38 17.3472C81.613 18.5003 81.491 19.6949 81.0296 20.7801C80.5682 21.8654 79.788 22.7922 78.7877 23.4436C77.7875 24.0949 76.6122 24.4414 75.4105 24.4392C74.6113 24.4467 73.8188 24.2982 73.0791 24.0022C72.3393 23.7062 71.6676 23.2688 71.103 22.7155C70.5384 22.1623 70.0925 21.5043 69.7913 20.7803C69.4901 20.0563 69.3397 19.2807 69.349 18.4991ZM78.0481 18.4991C78.0343 17.9916 77.8678 17.4992 77.5694 17.0837C77.2708 16.6684 76.8536 16.3483 76.37 16.1637C75.8864 15.9792 75.3578 15.9384 74.8505 16.0464C74.3433 16.1543 73.8799 16.4064 73.5184 16.7709C73.1569 17.1353 72.9134 17.596 72.8185 18.0952C72.7235 18.5944 72.7813 19.1099 72.9846 19.577C73.1878 20.0443 73.5275 20.4425 73.9612 20.7217C74.3948 21.0008 74.9029 21.1487 75.4222 21.1467C75.7752 21.1534 76.126 21.0889 76.4524 20.9569C76.7789 20.8251 77.074 20.6288 77.3194 20.3804C77.5648 20.1318 77.7551 19.8365 77.8784 19.5129C78.0018 19.1892 78.0556 18.8441 78.0365 18.4991H78.0481Z" fill="#0B090A"></path>
  <path d="M83.0801 9.9002C83.0801 9.50182 83.2009 9.11249 83.4271 8.78132C83.6534 8.45015 83.975 8.19196 84.3512 8.03956C84.7275 7.88715 85.1415 7.84722 85.5409 7.92495C85.9403 8.00267 86.3072 8.19445 86.5952 8.47606C86.8832 8.75779 87.0792 9.11657 87.1589 9.50725C87.2387 9.89794 87.1971 10.3029 87.0411 10.6709C86.8857 11.0389 86.6218 11.3534 86.2832 11.5747C85.9445 11.796 85.5464 11.9142 85.1391 11.9142C84.595 11.9083 84.0747 11.6942 83.6899 11.3178C83.305 10.9413 83.0862 10.4325 83.0801 9.9002ZM83.4156 12.8985H86.8859V24.0997H83.4156V12.8985Z" fill="#0B090A"></path>
  <path d="M101.74 18.4994C101.778 19.2443 101.666 19.9894 101.409 20.6918C101.153 21.3942 100.756 22.04 100.243 22.5921C99.7305 23.1442 99.1112 23.5916 98.4214 23.9087C97.7305 24.2257 96.983 24.406 96.2216 24.4394C95.5746 24.4815 94.9265 24.3801 94.3257 24.1431C93.7249 23.9061 93.1865 23.5394 92.751 23.0704V28.6031H89.2803V12.8988H92.751V13.951C93.1877 13.4834 93.7261 13.1183 94.3269 12.8832C94.9276 12.6481 95.5758 12.549 96.2216 12.5933C96.9795 12.6267 97.7248 12.806 98.4122 13.1209C99.1008 13.4358 99.7189 13.8801 100.231 14.4286C100.744 14.977 101.14 15.6188 101.399 16.3172C101.658 17.0158 101.773 17.7572 101.74 18.4994ZM98.2689 18.4994C98.2551 17.9739 98.0829 17.464 97.7744 17.0337C97.466 16.6033 97.0339 16.2717 96.5336 16.0804C96.0333 15.889 95.4857 15.8463 94.9612 15.9579C94.4355 16.0693 93.956 16.33 93.5817 16.7071C93.2062 17.0842 92.9543 17.561 92.8561 18.0777C92.7579 18.5946 92.8168 19.1283 93.0271 19.6119C93.2374 20.0957 93.5886 20.508 94.038 20.7972C94.4863 21.0863 95.0131 21.2395 95.5504 21.2375C95.9189 21.2527 96.2852 21.1918 96.6283 21.0585C96.9703 20.9252 97.2799 20.7226 97.5364 20.464C97.7929 20.2055 97.9916 19.8968 98.1176 19.5583C98.2435 19.2197 98.2955 18.8589 98.2689 18.4994Z" fill="#0B090A"></path>
  <path d="M112.301 20.7391C112.301 23.3188 109.987 24.4163 107.535 24.4163C106.534 24.5043 105.53 24.2969 104.652 23.8209C103.773 23.3449 103.061 22.6221 102.607 21.7461L105.592 20.0942C105.71 20.4979 105.966 20.8496 106.317 21.0906C106.67 21.3316 107.095 21.4472 107.523 21.418C108.345 21.418 108.761 21.1691 108.761 20.7165C108.761 19.4832 103.127 20.1394 103.127 16.2586C103.127 13.8147 105.232 12.5928 107.616 12.5928C108.522 12.5531 109.422 12.7541 110.22 13.1745C111.018 13.5948 111.685 14.2188 112.151 14.9801L109.166 16.5189C109.034 16.227 108.819 15.9786 108.546 15.804C108.272 15.6293 107.953 15.5356 107.627 15.5345C107.025 15.5345 106.667 15.7608 106.667 16.1568C106.667 17.4466 112.301 16.5981 112.301 20.7391Z" fill="#0B090A"></path>
  <path d="M124.875 12.8985V24.0998H121.405V23.0476C121.01 23.5133 120.51 23.8819 119.944 24.1237C119.376 24.3653 118.76 24.4734 118.143 24.4392C115.83 24.4392 113.852 22.8213 113.852 19.8004V12.8985H117.321V19.2912C117.295 19.5585 117.327 19.8283 117.416 20.0821C117.506 20.336 117.652 20.5677 117.841 20.7613C118.032 20.955 118.263 21.1059 118.518 21.2037C118.775 21.3014 119.048 21.3439 119.322 21.3278C120.572 21.3278 121.451 20.6037 121.451 19.0649V12.8985H124.875Z" fill="#0B090A"></path>
  <path d="M144.54 17.2206V24.0997H141.07V17.5148C141.07 16.3834 140.526 15.6819 139.427 15.6819C138.328 15.6819 137.634 16.4626 137.634 17.7863V24.0997H134.163V17.5148C134.163 16.3834 133.62 15.6819 132.522 15.6819C131.422 15.6819 130.728 16.4626 130.728 17.7863V24.0997H127.258V12.8985H130.728V13.9282C131.088 13.4732 131.557 13.113 132.094 12.8799C132.631 12.6468 133.219 12.5483 133.805 12.5931C134.392 12.5631 134.977 12.6829 135.502 12.9407C136.027 13.1986 136.475 13.5857 136.801 14.0639C137.182 13.5643 137.687 13.1674 138.267 12.9101C138.848 12.6529 139.486 12.5438 140.122 12.5931C142.829 12.5931 144.54 14.426 144.54 17.2206Z" fill="#0B090A"></path>
  <path d="M15.5008 4.80859V0H0V33.0379H15.5008V28.2293C12.3255 28.2293 9.28015 26.9955 7.03484 24.7994C4.78952 22.6033 3.52811 19.6247 3.52811 16.5189C3.52811 13.4131 4.78952 10.4346 7.03484 8.23853C9.28015 6.04242 12.3255 4.80859 15.5008 4.80859Z" fill="#0B090A"></path>
  <path d="M15.501 4.80838V28.229C18.6762 28.229 21.7216 26.9953 23.967 24.7992C26.2123 22.6031 27.4737 19.6245 27.4737 16.5187C27.4737 13.4129 26.2123 10.4344 23.967 8.23832C21.7216 6.04221 18.6762 4.80838 15.501 4.80838Z" fill="#0B090A"></path>
  <path d="M147.456 12.8308C148.861 12.8308 150 11.7164 150 10.3417C150 8.96689 148.861 7.85254 147.456 7.85254C146.05 7.85254 144.911 8.96689 144.911 10.3417C144.911 11.7164 146.05 12.8308 147.456 12.8308Z" fill="#0B090A"></path>
</svg>
