<?xml version="1.0" encoding="UTF-8"?>
<svg xmlns="http://www.w3.org/2000/svg" width="150" height="34" viewBox="0 0 150 34" fill="none">
  <path d="M32.2477 11.8336C32.6855 11.8336 32.8314 11.9883 32.8314 12.4045V21.8238H37.7803C38.206 21.8238 38.364 21.9785 38.364 22.3947V23.2272C38.364 23.6435 38.206 23.7981 37.7803 23.7981H31.2628C30.8373 23.7981 30.667 23.6435 30.667 23.2272V12.4045C30.667 11.9883 30.8373 11.8336 31.2628 11.8336H32.2477Z" fill="#0B090A"></path>
  <path d="M42.6797 15.9842C42.6797 13.2368 44.455 11.5837 47.5436 11.5837C50.632 11.5837 52.4073 13.2368 52.4073 15.9842V19.6472C52.4073 22.3945 50.6199 24.0477 47.5436 24.0477C44.4672 24.0477 42.6797 22.3945 42.6797 19.6472V15.9842ZM50.3646 15.9842C50.3646 14.4381 49.3797 13.6055 47.6044 13.6055C45.829 13.6055 44.8563 14.4499 44.8563 15.9842V19.671C44.8563 21.229 45.829 22.0496 47.6044 22.0496C49.3797 22.0496 50.3646 21.1933 50.3646 19.671V15.9842Z" fill="#0B090A"></path>
  <path d="M66.8898 17.2448C67.3639 17.2448 67.4735 17.3994 67.4735 17.8157V20.0754C67.4864 20.6076 67.3772 21.1359 67.1542 21.6216C66.9312 22.1073 66.5998 22.538 66.1845 22.8821C65.153 23.6855 63.8525 24.0841 62.5366 24.0001C59.3873 24.0001 57.6729 22.347 57.6729 19.5996V15.9128C57.6729 13.2012 59.4481 11.5361 62.5366 11.5361C64.9686 11.5361 66.5493 12.4757 67.2181 14.3548C67.2555 14.4253 67.2755 14.5036 67.2766 14.583C67.2778 14.6626 67.2599 14.7412 67.2245 14.8128C67.1891 14.8844 67.1371 14.947 67.0727 14.9954C67.0082 15.0439 66.9332 15.0769 66.8533 15.0922L65.9049 15.4133C65.4914 15.556 65.3212 15.4727 65.1753 15.0565C64.9739 14.5484 64.6051 14.1206 64.1272 13.8407C63.6493 13.5606 63.0897 13.4444 62.5366 13.5104C60.7492 13.5104 59.7764 14.3548 59.7764 15.889V19.671C59.7764 21.229 60.7613 22.0496 62.5366 22.0496C64.3119 22.0496 65.4064 21.2528 65.4064 20.0873V19.2072H62.7677C62.3299 19.2072 62.1719 19.0407 62.1719 18.6244V17.8157C62.1719 17.3994 62.3299 17.2448 62.7677 17.2448H66.8898Z" fill="#0B090A"></path>
  <path d="M72.4951 15.9839C72.4951 13.2366 74.2704 11.5835 77.3589 11.5835C80.4475 11.5835 82.2228 13.2366 82.2228 15.9839V19.647C82.2228 22.3943 80.4353 24.0475 77.3589 24.0475C74.2825 24.0475 72.4951 22.3943 72.4951 19.647V15.9839ZM80.1678 15.9839C80.1678 14.4378 79.1829 13.6053 77.4197 13.6053C75.6566 13.6053 74.6595 14.4497 74.6595 15.9839V19.6708C74.6595 21.2288 75.6444 22.0494 77.4197 22.0494C79.195 22.0494 80.1678 21.1931 80.1678 19.6708V15.9839Z" fill="#0B090A"></path>
  <path d="M87.9502 12.1785C87.9502 11.9169 88.0352 11.8336 88.3036 11.8336H88.8622C89.1294 11.8336 89.1901 11.9169 89.1901 12.1785V23.4532C89.1901 23.7148 89.1902 23.7981 88.8622 23.7981H88.3036C88.0352 23.7981 87.9502 23.7148 87.9502 23.4532V12.1785Z" fill="#0B090A"></path>
  <path d="M100.269 11.8335C101.282 11.8335 102.252 12.2269 102.969 12.9272C103.684 13.6276 104.087 14.5775 104.087 15.5679C104.087 16.5583 103.684 17.5082 102.969 18.2085C102.252 18.9088 101.282 19.3024 100.269 19.3024H96.6208V23.453C96.6208 23.7147 96.5601 23.7979 96.3051 23.7979H95.7331C95.478 23.7979 95.3809 23.7147 95.3809 23.453V12.1784C95.3809 11.9167 95.478 11.8335 95.7331 11.8335H100.269ZM100.16 18.1249C100.507 18.1249 100.852 18.0579 101.174 17.9275C101.496 17.7973 101.787 17.6063 102.034 17.3656C102.28 17.1247 102.474 16.8389 102.608 16.5244C102.742 16.2098 102.81 15.8726 102.81 15.5322C102.81 15.1917 102.742 14.8546 102.608 14.54C102.474 14.2254 102.28 13.9396 102.034 13.6989C101.787 13.4581 101.496 13.2672 101.174 13.1369C100.852 13.0065 100.507 12.9396 100.16 12.9396H96.5115V18.1249H100.16Z" fill="#0B090A"></path>
  <path d="M113.583 11.5956C114.522 11.4942 115.469 11.6918 116.284 12.1589C117.099 12.626 117.739 13.3377 118.107 14.1882C118.204 14.3785 118.107 14.5333 117.913 14.6284L117.377 14.8662C117.158 14.9494 117.073 14.9376 116.94 14.7117C116.664 14.0803 116.19 13.551 115.587 13.2004C114.983 12.8498 114.283 12.6959 113.583 12.7612C111.528 12.7612 110.41 13.558 110.41 14.9852C110.398 15.4213 110.548 15.847 110.831 16.1835C111.115 16.5202 111.514 16.745 111.954 16.8167C112.608 17.0253 113.285 17.1532 113.973 17.1973C114.804 17.2406 115.623 17.405 116.404 17.6849C117.003 17.8702 117.519 18.2516 117.864 18.7649C118.21 19.2781 118.364 19.8921 118.301 20.5036C118.301 22.7276 116.647 24.0715 113.607 24.0715C112.61 24.1831 111.605 23.957 110.757 23.4312C109.909 22.9053 109.272 22.1113 108.951 21.1815C108.929 21.139 108.917 21.0925 108.917 21.0452C108.916 20.998 108.926 20.951 108.945 20.9078C108.964 20.8647 108.994 20.8263 109.031 20.7954C109.068 20.7646 109.11 20.7422 109.158 20.7294L109.692 20.5393C109.734 20.5224 109.779 20.5143 109.825 20.5155C109.87 20.5167 109.915 20.5271 109.957 20.5462C109.998 20.5651 110.034 20.5923 110.065 20.626C110.094 20.6595 110.117 20.6989 110.13 20.7415C110.402 21.4133 110.886 21.983 111.511 22.3678C112.137 22.7528 112.87 22.9329 113.607 22.8822C115.906 22.8822 117.037 22.0973 117.037 20.5036C117.058 20.0846 116.926 19.6718 116.667 19.3387C116.405 19.0054 116.033 18.7735 115.614 18.684C114.985 18.5003 114.336 18.3885 113.68 18.3508L112.367 18.1844C111.957 18.099 111.55 17.9919 111.152 17.8632C110.757 17.7468 110.39 17.5571 110.07 17.3044C109.747 17.0186 109.493 16.667 109.324 16.2744C109.156 15.8818 109.079 15.458 109.097 15.0328C109.182 12.9515 110.774 11.5956 113.583 11.5956Z" fill="#0B090A"></path>
  <path d="M124.855 19.7305C124.906 20.5715 125.285 21.3615 125.911 21.9392C126.538 22.5168 127.368 22.8385 128.229 22.8385C129.091 22.8385 129.919 22.5168 130.546 21.9392C131.174 21.3615 131.551 20.5715 131.604 19.7305V12.1784C131.604 11.9167 131.689 11.8335 131.956 11.8335H132.516C132.783 11.8335 132.868 11.9167 132.868 12.1784V19.7186C132.868 22.4183 131.238 24.0477 128.235 24.0477C125.231 24.0477 123.602 22.4183 123.602 19.7186V12.1784C123.602 11.9167 123.688 11.8335 123.943 11.8335H124.514C124.77 11.8335 124.855 11.9167 124.855 12.1784V19.7305Z" fill="#0B090A"></path>
  <path d="M149.648 11.8336C149.915 11.8336 150 11.9169 150 12.1785V23.4532C150 23.7148 149.915 23.7981 149.648 23.7981H149.137C148.882 23.7981 148.797 23.7148 148.797 23.4532V16.5908C148.797 15.5923 148.866 14.5949 149.003 13.6057H148.93C148.55 14.5104 148.108 15.3886 147.605 16.2341L144.991 20.7415C144.959 20.8197 144.903 20.8866 144.832 20.9332C144.76 20.98 144.676 21.0044 144.59 21.0032H144.249C144.161 21.0035 144.076 20.979 144.002 20.9325C143.929 20.8862 143.871 20.8197 143.836 20.7415L141.185 16.1865C140.715 15.353 140.308 14.4864 139.969 13.5938H139.896C140.021 14.5922 140.086 15.5969 140.09 16.6027V23.4532C140.09 23.7148 140.005 23.7981 139.738 23.7981H139.263C138.996 23.7981 138.911 23.7148 138.911 23.4532V12.1785C138.911 11.9169 138.996 11.8336 139.263 11.8336H139.702C139.801 11.8245 139.902 11.8459 139.99 11.8949C140.076 11.9439 140.146 12.018 140.188 12.1072L144.444 19.5047L148.675 12.1785C148.809 11.9288 148.882 11.8931 149.149 11.8931L149.648 11.8336Z" fill="#0B090A"></path>
  <path d="M10.6153 21.1578V29.7565C10.6153 30.0862 10.4815 30.4023 10.2431 30.6353C10.0048 30.8684 9.68162 30.9993 9.34461 30.9993C9.0076 30.9993 8.68443 30.8684 8.44616 30.6353C8.20776 30.4023 8.07393 30.0862 8.07393 29.7565V21.1697C8.4277 21.4224 8.85191 21.5635 9.28984 21.5741C9.76736 21.5874 10.235 21.4405 10.6153 21.1578ZM21.4373 18.6721C21.1149 18.6721 20.8055 18.7975 20.5775 19.0205C20.3495 19.2435 20.2214 19.5461 20.2214 19.8615V21.36C20.2214 21.6897 20.3552 22.0058 20.5935 22.2388C20.8318 22.4719 21.155 22.6028 21.4921 22.6028C21.8291 22.6028 22.1522 22.4719 22.3905 22.2388C22.6288 22.0058 22.7627 21.6897 22.7627 21.36V19.9209C22.7721 19.7504 22.7439 19.5798 22.68 19.4209C22.616 19.262 22.5179 19.1184 22.3921 18.9999C22.2664 18.8815 22.1159 18.7908 21.9512 18.7343C21.7864 18.6777 21.6112 18.6566 21.4373 18.6721ZM5.31372 24.4165C4.87615 24.4037 4.45267 24.2629 4.09781 24.0121V32.6346C4.09781 32.9659 4.23225 33.2835 4.47174 33.5177C4.71111 33.7519 5.03585 33.8834 5.37456 33.8834C5.71315 33.8834 6.0379 33.7519 6.27727 33.5177C6.51676 33.2835 6.65132 32.9659 6.65132 32.6346V24.0716C6.25419 24.3227 5.78566 24.4435 5.31372 24.4165ZM17.4733 16.0913C17.3085 16.0833 17.1438 16.1081 16.9892 16.1643C16.8346 16.2204 16.6933 16.3067 16.5739 16.4179C16.4545 16.5293 16.3594 16.663 16.2946 16.8114C16.2297 16.9597 16.1963 17.1194 16.1966 17.2807V23.9051C16.1966 24.2363 16.331 24.554 16.5705 24.7882C16.81 25.0223 17.1347 25.1539 17.4733 25.1539C17.8119 25.1539 18.1366 25.0223 18.3761 24.7882C18.6155 24.554 18.7501 24.2363 18.7501 23.9051V17.3639C18.7598 17.1923 18.7312 17.0207 18.6666 16.8608C18.6019 16.701 18.5027 16.5567 18.3755 16.438C18.2484 16.3193 18.0964 16.2289 17.9302 16.1733C17.7639 16.1175 17.5873 16.0977 17.4125 16.1151L17.4733 16.0913ZM13.4363 18.6365C12.9783 18.6334 12.5324 18.4922 12.1596 18.2321V26.8784C12.1596 27.2096 12.294 27.5273 12.5335 27.7614C12.7729 27.9956 13.0976 28.1272 13.4363 28.1272C13.7749 28.1272 14.0997 27.9956 14.339 27.7614C14.5785 27.5273 14.7131 27.2096 14.7131 26.8784V18.244C14.3273 18.525 13.8564 18.6716 13.3755 18.6603L13.4363 18.6365ZM2.55351 25.2609V1.10606C2.55035 0.811585 2.42842 0.530314 2.21443 0.323255C2.00045 0.116197 1.71153 0 1.41047 0H1.14304C0.841981 0 0.553062 0.116197 0.339075 0.323255C0.125088 0.530314 0.00315758 0.811585 0 1.10606V25.2609C0 25.5574 0.120473 25.8418 0.334824 26.0515C0.549175 26.2611 0.839795 26.3789 1.14304 26.3789H1.41047C1.71359 26.3789 2.00433 26.2611 2.21869 26.0515C2.43304 25.8418 2.55351 25.5574 2.55351 25.2609ZM5.44743 23.5007H5.18001C4.87688 23.5007 4.58614 23.383 4.37179 23.1733C4.15744 22.9637 4.03696 22.6793 4.03696 22.3828V3.98419C4.04012 3.68971 4.16205 3.40844 4.37604 3.20138C4.59003 2.99433 4.87895 2.87813 5.18001 2.87813H5.44743C5.74849 2.87813 6.03741 2.99433 6.2514 3.20138C6.46538 3.40844 6.58732 3.68971 6.59047 3.98419V22.4066C6.59047 22.7031 6.47 22.9874 6.25565 23.1971C6.0413 23.4068 5.75056 23.5245 5.44743 23.5245V23.5007ZM9.47225 20.6702H9.19256C8.89272 20.6702 8.60513 20.5536 8.39297 20.3462C8.18092 20.1388 8.06178 19.8575 8.06178 19.5641V6.83852C8.0602 6.69224 8.08826 6.54715 8.14437 6.41157C8.20047 6.2761 8.28355 6.15265 8.38872 6.04871C8.49389 5.94476 8.6191 5.86222 8.75706 5.80585C8.89502 5.7496 9.04306 5.72058 9.19256 5.72058H9.47225C9.77331 5.72367 10.0609 5.84284 10.2727 6.05216C10.4844 6.26147 10.6031 6.54405 10.6031 6.83852V19.5641C10.6031 19.8575 10.484 20.1388 10.272 20.3462C10.0598 20.5536 9.77222 20.6702 9.47225 20.6702ZM13.4971 17.7564H13.2418C12.9407 17.7564 12.6518 17.6403 12.4378 17.4331C12.2238 17.2261 12.1019 16.9448 12.0987 16.6503V9.79991C12.0888 9.6472 12.1109 9.49413 12.1638 9.35011C12.2168 9.2062 12.2995 9.07431 12.4066 8.96287C12.5137 8.85143 12.6432 8.76259 12.7869 8.70194C12.9305 8.6414 13.0852 8.61024 13.2418 8.6106H13.5092C13.8125 8.6106 14.1031 8.72834 14.3174 8.93801C14.5318 9.14769 14.6523 9.43205 14.6523 9.72855V16.6265C14.6538 16.7744 14.6255 16.921 14.5688 17.058C14.5121 17.195 14.4281 17.3197 14.3218 17.4248C14.2155 17.5298 14.089 17.6133 13.9495 17.6702C13.81 17.7271 13.6604 17.7564 13.5092 17.7564H13.4971ZM17.534 15.1994H17.2666C16.9635 15.1994 16.6727 15.0816 16.4584 14.872C16.244 14.6623 16.1236 14.3779 16.1236 14.0814V12.3093C16.1267 12.0149 16.2487 11.7336 16.4626 11.5265C16.6766 11.3195 16.9656 11.2033 17.2666 11.2033H17.534C17.8351 11.2033 18.124 11.3195 18.338 11.5265C18.552 11.7336 18.6739 12.0149 18.6771 12.3093V14.0814C18.6771 14.3759 18.5583 14.6585 18.3466 14.8678C18.1348 15.0771 17.8472 15.1963 17.5462 15.1994H17.534Z" fill="#0B090A"></path>
</svg>
